<svg xmlns="http://www.w3.org/2000/svg" enable-background="new 0 0 2000 2000" viewBox="0 0 2000 2000"><rect width="1293.77" height="14.1" x="377.77" y="1478.21" fill="#2d3154"/><path fill="#18898e" d="M846.78,1439.56c0,0-13.34-3.56-35.56-11.56c-44.45-24-92.46-48.9-135.14-71.12      c-68.46-47.12-140.47-115.58-181.37-213.37c-95.13-224.93-166.25-304.06-166.25-304.06s144.92,10.67,292.5,156.47      C768.54,1142.62,870.78,1400.45,846.78,1439.56z"/><path fill="#d2e2ff" d="M846.78,1439.56c0,0-180.48-172.48-221.37-229.38c-43.56-60.46-92.46-199.15-146.69-234.71      c80.01,49.79,113.8,169.81,177.81,246.27C717.86,1293.76,837,1393.33,846.78,1439.56z"/><path fill="#00a99d" d="M845,1372.88c0,0-224.04-145.8-247.16-388.52c-23.12-242.71-66.68-339.62-66.68-339.62      s134.25,53.34,231.15,237.38S879.67,1342.66,845,1372.88z"/><path fill="#d2e2ff" d="M845,1372.88c0,0-120.91-219.6-143.14-286.28c-23.12-70.24-28.45-216.93-68.46-266.72      c61.34,71.12,57.79,196.48,96.02,288.05C764.98,1194.18,848.55,1325.76,845,1372.88z"/><path fill="#454e7c" d="M1271.13,1478.2l-475.32,0c-23.57,0-42.85-17.82-42.85-39.59l0-891.32c0-21.78,19.28-39.59,42.85-39.59          l475.32,0c23.57,0,42.85,17.82,42.85,39.59l0,891.32C1313.98,1460.38,1294.7,1478.2,1271.13,1478.2z"/><path fill="#1a1b39" d="M1300.33,1478.2l-475.32,0c-23.57,0-42.85-17.82-42.86-39.59l0-891.32c0-21.78,19.28-39.59,42.85-39.59          l475.32,0c23.57,0,42.85,17.82,42.85,39.59l0,891.32C1343.19,1460.38,1323.9,1478.2,1300.33,1478.2z"/><path fill="#5c73c1" d="M1287.78,1457.24l-450.21,0c-17.9,0-32.55-13.53-32.55-30.08l0-868.43c0-16.54,14.65-30.08,32.55-30.08          l450.21,0c17.9,0,32.55,13.53,32.55,30.08l0,868.43C1320.33,1443.7,1305.68,1457.24,1287.78,1457.24z"/><path fill="#cbd9ff" d="M1280.21,1451.21l-435.08,0c-17.9,0-32.55-13.53-32.55-30.08l0-856.39c0-16.54,14.65-30.08,32.55-30.08          l435.08,0c17.9,0,32.55,13.53,32.55,30.08l0,856.39C1312.76,1437.68,1298.12,1451.21,1280.21,1451.21z"/><path fill="#1a1b39" d="M1075.49,558.47c0,4.57-4.01,8.28-8.96,8.28c-4.95,0-8.96-3.71-8.96-8.28c0-4.57,4.01-8.28,8.96-8.28          C1071.47,550.19,1075.48,553.9,1075.49,558.47z"/><path fill="#1a1b39" d="M774.65,766.8l-13.61,0c-1.11,0-2.03-0.91-2.03-2.03l0-87.25c0-1.11,0.91-2.03,2.03-2.03l13.61,0          c1.11,0,2.03,0.91,2.03,2.03l0,87.25C776.67,765.89,775.76,766.8,774.65,766.8z"/><path fill="#1a1b39" d="M774.65,885.06l-13.61,0c-1.11,0-2.03-0.91-2.03-2.03l0-87.25c0-1.11,0.91-2.03,2.03-2.03l13.61,0          c1.11,0,2.03,0.91,2.03,2.03l0,87.25C776.67,884.15,775.76,885.06,774.65,885.06z"/><g><path fill="#5c73c1" d="M1220.37,596.76h50.55c1.94,0,3.51-1.57,3.51-3.51c0-1.94-1.57-3.51-3.51-3.51h-50.55         c-1.94,0-3.51,1.57-3.51,3.51C1216.86,595.19,1218.43,596.76,1220.37,596.76z"/><path fill="#5c73c1" d="M1220.37,618.35h50.55c1.94,0,3.51-1.57,3.51-3.51c0-1.94-1.57-3.51-3.51-3.51h-50.55         c-1.94,0-3.51,1.57-3.51,3.51C1216.86,616.78,1218.43,618.35,1220.37,618.35z"/><path fill="#5c73c1" d="M1242.79,639.94h28.13c1.94,0,3.51-1.57,3.51-3.51c0-1.94-1.57-3.51-3.51-3.51h-28.13         c-1.94,0-3.51,1.57-3.51,3.51C1239.27,638.36,1240.85,639.94,1242.79,639.94z"/></g><g><path fill="#5c73c1" d="M870.63,629.43c-10.18-10.18-10.18-26.74,0-36.91c0,0,0,0,0,0c10.17-10.18,26.73-10.18,36.91,0         c4.93,4.93,7.65,11.48,7.65,18.46s-2.72,13.53-7.65,18.46c-5.09,5.09-11.77,7.63-18.46,7.63         C882.4,637.06,875.72,634.52,870.63,629.43z M875.36,597.25c-7.57,7.57-7.57,19.88,0,27.45c7.57,7.57,19.88,7.57,27.45,0         c3.67-3.67,5.68-8.54,5.68-13.72s-2.02-10.06-5.68-13.72c-3.78-3.78-8.75-5.68-13.72-5.68         C884.12,591.58,879.15,593.47,875.36,597.25z"/><path fill="#5c73c1" d="M858.62,644.78c0.86,0,1.71-0.33,2.37-0.98l14.37-14.37c1.31-1.31,1.31-3.43,0-4.73         c-1.31-1.31-3.43-1.31-4.73,0l-14.37,14.37c-1.31,1.31-1.31,3.43,0,4.73C856.91,644.46,857.77,644.78,858.62,644.78z"/></g><g><path fill="#5c80ff" d="M889.9,900.07l5.75-12.92c5.49,3.63,13.28,6.11,20.44,6.11c7.26,0,10.09-2.04,10.09-5.04      c0-9.82-35.22-2.66-35.22-25.66c0-11.06,9.03-20.09,27.43-20.09c8.05,0,16.37,1.86,22.48,5.4l-5.4,13.01      c-5.93-3.19-11.77-4.78-17.17-4.78c-7.34,0-10,2.48-10,5.58c0,9.47,35.13,2.39,35.13,25.22c0,10.8-9.03,20-27.43,20      C905.83,906.88,895.74,904.14,889.9,900.07z"/><path fill="#5c80ff" d="M948.85,843.43c0-5.05,4.07-8.94,10.26-8.94c6.19,0,10.26,3.63,10.26,8.67c0,5.31-4.07,9.2-10.26,9.2      C952.92,852.37,948.85,848.48,948.85,843.43z M950.71,857.68h16.81v47.96h-16.81V857.68z"/><path fill="#5c80ff" d="M1030.01,857.68v39.2c0,18.14-10.26,26.72-28.14,26.72c-9.2,0-17.96-2.12-23.81-6.28l6.11-11.77      c3.98,3.19,10.53,5.13,16.19,5.13c9.03,0,12.83-4.07,12.83-11.59v-1.59c-3.27,3.8-8.14,5.66-14.25,5.66      c-12.74,0-23.54-9.03-23.54-23.18c0-14.07,10.8-23.1,23.54-23.1c6.64,0,11.77,2.12,15.05,6.64v-5.84H1030.01z M1013.37,879.98      c0-5.84-4.43-9.73-10.44-9.73c-6.02,0-10.53,3.89-10.53,9.73c0,5.84,4.51,9.82,10.53,9.82      C1008.94,889.8,1013.37,885.82,1013.37,879.98z"/><path fill="#5c80ff" d="M1091.88,878.21v27.43h-16.81v-24.69c0-6.9-3.01-9.82-7.87-9.82c-5.4,0-9.56,3.36-9.56,11.33v23.18h-16.81      v-47.96h16.02v5.22c3.8-3.98,9.2-6.02,15.22-6.02C1083.29,856.88,1091.88,863.34,1091.88,878.21z"/><path fill="#5c80ff" d="M1178.62,857.68v47.96h-16.01v-5.13c-3.63,3.98-8.76,5.93-14.25,5.93c-11.77,0-20.36-6.73-20.36-21.95      v-26.81h16.82v24.07c0,7.43,2.92,10.35,7.96,10.35c4.96,0,9.03-3.28,9.03-11.33v-23.1H1178.62z"/><path fill="#5c80ff" d="M1243.14,881.66c0,15.22-10.53,24.78-23.54,24.78c-5.58,0-10.09-1.68-13.36-5.05v21.42h-16.81v-65.13h16.01      v4.78c3.19-3.8,7.88-5.58,14.16-5.58C1232.61,856.88,1243.14,866.44,1243.14,881.66z M1226.15,881.66      c0-7.26-4.42-11.41-10.09-11.41s-10.09,4.16-10.09,11.41c0,7.26,4.43,11.42,10.09,11.42S1226.15,888.92,1226.15,881.66z"/><g><path fill="#fff" d="M1264.01,996.36l-394.98,0c-2.42,0-4.38-1.96-4.38-4.38v-41.04c0-2.42,1.96-4.38,4.38-4.38l394.98,0       c2.42,0,4.38,1.96,4.38,4.38v41.04C1268.39,994.4,1266.43,996.36,1264.01,996.36z"/><path fill="#263238" d="M960.77,976.67l0.92-1.94c1.3,1.17,3.51,2.01,5.75,2.01c3.01,0,4.31-1.17,4.31-2.69        c0-4.26-10.56-1.57-10.56-8.04c0-2.69,2.09-4.98,6.67-4.98c2.04,0,4.16,0.55,5.6,1.54l-0.82,1.99        c-1.52-0.97-3.24-1.42-4.78-1.42c-2.96,0-4.23,1.24-4.23,2.76c0,4.26,10.55,1.59,10.55,7.99c0,2.66-2.14,4.95-6.75,4.95        C964.78,978.86,962.16,977.97,960.77,976.67z"/><path fill="#263238" d="M977.06,961.39c0-0.87,0.7-1.57,1.62-1.57c0.92,0,1.62,0.67,1.62,1.52c0,0.9-0.67,1.59-1.62,1.59        C977.76,962.93,977.06,962.26,977.06,961.39z M977.48,965.47h2.39v13.19h-2.39V965.47z"/><path fill="#263238" d="M997.05,965.47v11.4c0,4.65-2.37,6.77-6.85,6.77c-2.41,0-4.85-0.67-6.3-1.97l1.15-1.84        c1.22,1.05,3.14,1.72,5.08,1.72c3.11,0,4.53-1.45,4.53-4.43v-1.05c-1.14,1.37-2.86,2.04-4.76,2.04c-3.81,0-6.7-2.59-6.7-6.4        c0-3.81,2.89-6.37,6.7-6.37c1.97,0,3.76,0.72,4.88,2.16v-2.04H997.05z M994.71,971.72c0-2.56-1.89-4.28-4.53-4.28        c-2.67,0-4.56,1.72-4.56,4.28c0,2.54,1.89,4.31,4.56,4.31C992.82,976.02,994.71,974.26,994.71,971.72z"/><path fill="#263238" d="M1014.14,971.07v7.59h-2.39v-7.32c0-2.59-1.3-3.86-3.56-3.86c-2.54,0-4.18,1.52-4.18,4.38v6.8h-2.39        v-13.19h2.29v1.99c0.97-1.34,2.67-2.11,4.76-2.11C1011.87,965.34,1014.14,967.19,1014.14,971.07z"/><path fill="#263238" d="M1037.58,965.47v13.19h-2.27v-1.99c-0.97,1.37-2.61,2.14-4.48,2.14c-3.41,0-5.68-1.87-5.68-5.75v-7.59        h2.39v7.32c0,2.59,1.3,3.88,3.56,3.88c2.49,0,4.08-1.54,4.08-4.38v-6.82H1037.58z"/><path fill="#263238" d="M1055.81,972.06c0,4.06-2.81,6.75-6.67,6.75c-1.87,0-3.51-0.72-4.61-2.14v6.82h-2.39v-18.02h2.29v2.09        c1.07-1.47,2.76-2.22,4.71-2.22C1053,965.34,1055.81,968.03,1055.81,972.06z M1053.39,972.06c0-2.79-1.92-4.63-4.46-4.63        c-2.51,0-4.43,1.84-4.43,4.63c0,2.81,1.92,4.66,4.43,4.66C1051.48,976.72,1053.39,974.88,1053.39,972.06z"/><path fill="#263238" d="M1085.79,965.47l-4.93,13.19h-2.29l-3.81-10.01l-3.86,10.01h-2.29l-4.91-13.19h2.27l3.83,10.51        l3.98-10.51h2.01l3.91,10.55l3.93-10.55H1085.79z"/><path fill="#263238" d="M1087.8,961.39c0-0.87,0.7-1.57,1.62-1.57c0.92,0,1.62,0.67,1.62,1.52c0,0.9-0.67,1.59-1.62,1.59        C1088.49,962.93,1087.8,962.26,1087.8,961.39z M1088.22,965.47h2.39v13.19h-2.39V965.47z"/><path fill="#263238" d="M1102.59,977.89c-0.72,0.62-1.82,0.92-2.89,0.92c-2.66,0-4.18-1.47-4.18-4.13v-7.24h-2.24v-1.97h2.24        v-2.89h2.39v2.89h3.79v1.97h-3.79v7.15c0,1.42,0.75,2.22,2.07,2.22c0.7,0,1.37-0.23,1.86-0.62L1102.59,977.89z"/><path fill="#263238" d="M1118,971.07v7.59h-2.39v-7.32c0-2.59-1.29-3.86-3.56-3.86c-2.54,0-4.18,1.52-4.18,4.38v6.8h-2.39        v-18.47h2.39v7.15c1-1.27,2.64-1.99,4.66-1.99C1115.74,965.34,1118,967.19,1118,971.07z"/><path fill="#263238" d="M1141.57,969.85h2.39v6.8c-1.74,1.47-4.16,2.22-6.6,2.22c-5.35,0-9.28-3.76-9.28-8.91        c0-5.15,3.93-8.91,9.33-8.91c2.76,0,5.1,0.92,6.7,2.69l-1.54,1.54c-1.45-1.39-3.09-2.02-5.06-2.02c-4.03,0-6.94,2.81-6.94,6.7        c0,3.83,2.91,6.7,6.92,6.7c1.47,0,2.84-0.32,4.08-1.12V969.85z"/><path fill="#263238" d="M1147.15,972.06c0-3.93,2.91-6.72,6.87-6.72c3.96,0,6.84,2.79,6.84,6.72c0,3.93-2.89,6.75-6.84,6.75        C1150.06,978.81,1147.15,976,1147.15,972.06z M1158.46,972.06c0-2.81-1.89-4.63-4.43-4.63c-2.54,0-4.46,1.82-4.46,4.63        c0,2.81,1.91,4.66,4.46,4.66C1156.56,976.72,1158.46,974.88,1158.46,972.06z"/><path fill="#263238" d="M1162.97,972.06c0-3.93,2.91-6.72,6.87-6.72c3.96,0,6.84,2.79,6.84,6.72c0,3.93-2.89,6.75-6.84,6.75        C1165.88,978.81,1162.97,976,1162.97,972.06z M1174.27,972.06c0-2.81-1.89-4.63-4.43-4.63c-2.54,0-4.46,1.82-4.46,4.63        c0,2.81,1.91,4.66,4.46,4.66C1172.38,976.72,1174.27,974.88,1174.27,972.06z"/><path fill="#263238" d="M1192.63,965.47v11.4c0,4.65-2.36,6.77-6.85,6.77c-2.41,0-4.85-0.67-6.3-1.97l1.14-1.84        c1.22,1.05,3.14,1.72,5.08,1.72c3.11,0,4.53-1.45,4.53-4.43v-1.05c-1.15,1.37-2.87,2.04-4.76,2.04c-3.81,0-6.7-2.59-6.7-6.4        c0-3.81,2.89-6.37,6.7-6.37c1.97,0,3.76,0.72,4.88,2.16v-2.04H1192.63z M1190.29,971.72c0-2.56-1.89-4.28-4.53-4.28        c-2.66,0-4.55,1.72-4.55,4.28c0,2.54,1.89,4.31,4.55,4.31C1188.39,976.02,1190.29,974.26,1190.29,971.72z"/><path fill="#263238" d="M1197.19,960.19h2.39v18.47h-2.39V960.19z"/><path fill="#263238" d="M1216.02,972.86h-10.71c0.3,2.32,2.17,3.86,4.78,3.86c1.54,0,2.84-0.52,3.81-1.59l1.32,1.54        c-1.19,1.39-3.01,2.14-5.2,2.14c-4.26,0-7.09-2.81-7.09-6.75c0-3.91,2.81-6.72,6.62-6.72c3.81,0,6.52,2.74,6.52,6.8        C1216.06,972.34,1216.04,972.64,1216.02,972.86z M1205.31,971.14h8.46c-0.25-2.22-1.92-3.78-4.23-3.78        C1207.25,967.36,1205.56,968.9,1205.31,971.14z"/><g><path fill="#263238" d="M927.87,971.38v3.89h9.55c-0.83,3.37-3.84,5.49-8,5.49c-5.33,0-9.21-3.8-9.21-9.04        c0-3.01,1.52-5.87,4.04-7.52c4.04-2.64,8.89-1.63,11.42,1.26c0.65,0.74,1.69,0.98,2.54,0.49l0,0        c1.08-0.61,1.38-2.08,0.57-3.01c-2.32-2.63-5.78-4.2-9.48-4.2c-7.45,0-13.07,5.58-13.07,12.97s5.68,12.97,13.2,12.97        c7.08,0,12.22-4.75,12.22-11.3v-2.01H927.87z"/></g></g></g><g><circle cx="1066.52" cy="747.63" r="69.86" fill="#5c80ff" transform="rotate(-45.001 1066.52 747.645)"/><path fill="#fff" d="M1111.7,801.63c-2.07-21.47-20.35-39.67-45.16-39.67s-41.78,18.77-45.16,39.82       c0,0,15.33,16.96,45.16,16.71C1096.38,818.24,1111.7,801.63,1111.7,801.63z"/><circle cx="1066.55" cy="739.36" r="27.39" fill="#fff"/></g><g><path fill="#f9b295" d="M1225.56,954.15c10.04-4.7,36.9-18.27,36.9-18.27l17.62,40.02c0,0-59.21,31.65-72.2,9.39     C1201.75,977.66,1205.67,958.42,1225.56,954.15z"/><path fill="#f9b295" d="M1420.61,835.31c-1.23,3.83-10.13,12.65-13.43,6.49l2.14-20.32c0.02-0.01,0.03-0.02,0.05-0.02        c2.04-1.02,4.68-1.72,6.94-1.09c0.34,0.1,0.68,0.23,1,0.39C1422.26,823.24,1422.05,830.83,1420.61,835.31z"/><path fill="#fcc5a7" d="M1317.03,1416.31c0,0,2.55,25.84,1.17,29.57c-0.48,1.29-14.82,8.64-14.82,8.64l-0.1,14.85l28.05-5.25        l8.84-3.78l0.55-3.96c0,0-1.89-7.81-1.56-11.16c0.33-3.35,2.19-28.92,2.19-28.92"/><path fill="#bac2ce" d="M1339.63,1454.23c2.38,0.4,1.43,4.66,2.42,11.47c0.41,2.84,0.28,9.17-0.35,11.97        c-4.61,4.11-16.85,1.64-18.8,1.57c-11.75-0.41-24.87,2.97-39,1.06c-2.75-0.37-8.15-0.68-9.43-5.88c-0.16-0.66,0-4.21,0-4.21        s27.11-11.89,35.38-16.46c1.67-0.92,3.14-3.21,4.37-3.21c1.24,0,2.46,3.37,3.5,4.09c5.12,3.58,13.22,3.36,18.12,2.27        C1337.98,1456.43,1338.91,1454.11,1339.63,1454.23z"/><path fill="#10171c" d="M1339.63,1450.93c2.38,0.4,1.43,4.66,2.42,11.47c0.41,2.84,0.8,9.18,0.17,11.98        c-4.61,4.11-17.37,1.63-19.32,1.57c-11.75-0.41-25.22,2.24-39,1.06c-2.89-0.25-8.15-1.58-9.43-6.79        c-1.08-4.44,25.66-14.39,35.38-19.76c1.67-0.92,3.14-3.21,4.37-3.21c1.24,0,2.46,3.37,3.5,4.09        c5.12,3.58,13.22,3.36,18.12,2.27C1337.98,1453.12,1338.91,1450.81,1339.63,1450.93z"/><path fill="#fcc5a7" d="M1419.74,1416.31c0,0-2.55,25.84-1.17,29.57c0.48,1.29,14.82,8.64,14.82,8.64l0.1,14.85l-28.05-5.25        l-8.84-3.78l-0.55-3.96c0,0,1.89-7.81,1.56-11.16c-0.33-3.35-2.19-28.92-2.19-28.92"/><path fill="#bac2ce" d="M1397.14,1454.23c-2.38,0.4-1.43,4.66-2.42,11.47c-0.41,2.84-0.28,9.17,0.35,11.97        c4.61,4.11,16.85,1.64,18.8,1.57c11.75-0.41,24.87,2.97,39,1.06c2.75-0.37,8.15-0.68,9.43-5.88c0.16-0.66,0-4.21,0-4.21        s-27.11-11.89-35.38-16.46c-1.67-0.92-3.14-3.21-4.37-3.21c-1.24,0-2.46,3.37-3.5,4.09c-5.12,3.58-13.22,3.36-18.12,2.27        C1398.79,1456.43,1397.86,1454.11,1397.14,1454.23z"/><path fill="#10171c" d="M1397.14,1450.93c-2.38,0.4-1.43,4.66-2.42,11.47c-0.41,2.84-0.8,9.18-0.17,11.98        c4.61,4.11,17.37,1.63,19.32,1.57c11.75-0.41,25.22,2.24,39,1.06c2.89-0.25,8.15-1.58,9.43-6.79        c1.08-4.44-25.66-14.39-35.38-19.76c-1.67-0.92-3.14-3.21-4.37-3.21c-1.24,0-2.46,3.37-3.5,4.09        c-5.12,3.58-13.22,3.36-18.12,2.27C1398.79,1453.12,1397.86,1450.81,1397.14,1450.93z"/><path fill="#0266c0" d="M1431.39,1140.95c0-25.34-6.48-60.28-6.48-60.28s-104.46-28.92-111.62-1.95       c-6.36,23.94-6.41,44.47-7.27,62.43c-0.27,5.87,9.29,298.99,9.29,298.99h24.6c0,0,4.78-38.68,9.76-88.53       c0.02-0.32,0.05-0.66,0.09-1.02c0.09-0.84,0.16-1.71,0.25-2.6c0.07-0.8,0.16-1.59,0.23-2.39c2.16-24.88,2.69-56.77,2.69-56.77       c4.89-31.35,13.38-100.85,16.05-129.72c0,0,9.79,98.37,14.68,129.72c0,0,0.52,31.89,2.69,56.77c0.07,0.8,0.16,1.59,0.23,2.39       c0.09,0.89,0.16,1.75,0.25,2.6c0.05,0.36,0.07,0.71,0.09,1.02c4.99,49.85,8.99,88.53,8.99,88.53h22.76       C1418.67,1440.14,1431.39,1168.83,1431.39,1140.95z"/><path fill="#f9b295" d="M1390.34,889.42c-0.54-1.54-1.68-6.58-1.34-21.26h-20.9h-20.9c0.34,14.68-0.81,19.72-1.34,21.26       c-0.49,0.16-19.84,6.96-19.84,6.96l42.08,16.7l42.08-16.7C1410.19,896.38,1390.83,889.58,1390.34,889.42z"/><path fill="#f88968" d="M1451.55,1153.84c0,0,2.56,5.88,2.56,7.78c0,1.9-0.47,7.59-1.28,9.11c-0.81,1.52-5.64,7.21-6.12,8.25        c-0.47,1.04-0.83,3.46,0,3.7c1.22,0.36,8.63-6.83,8.63-6.83l5.69-12.14c0,0-0.76-7.49-0.95-7.97        c-0.19-0.47-3.98-6.45-3.98-6.45"/><path fill="#f9b295" d="M1462.99,1144.7c1.83,8.04,3.66,19.01,3.11,22.3c-0.55,3.29-5.85,14.26-5.85,14.26        s-9.69,8.04-10.97,8.23c-1.28,0.18-1.65-3.02,0-5.03c1.65-2.01,6.22-6.4,6.67-7.59c0.46-1.19,1.28-9.78,1.24-11.33        c-0.05-1.55-3.7-7.4-5.99-7.22c-2.29,0.18-3.57,4.29-3.57,5.94s-0.55,5.48-1.37,6.76c-0.82,1.28-2.92,1.83-3.75,0.82        c-0.82-1.01-1.46-10.15-1.46-11.97c0-1.83,4.7-13.28,5.16-15.84c0.46-2.56-2.68-23.92-2.68-23.92l18.26-1.92        C1461.81,1118.19,1461.17,1136.65,1462.99,1144.7z"/><path fill="#f9b295" d="M1440.86,953c0,0,11.15-12.57,14.85,4.79c3.44,16.15,3.93,40.2,9.35,73.59        c0.78,4.81,1.14,9.65,1.08,14.52c-0.22,16.66-28.58,22.48-28.58-4.46c0,0-11.15-31.87-11.15-66.01        C1426.41,958.35,1440.86,953,1440.86,953z"/><path fill="#f9b295" d="M1466.13,1045.9c-0.22,16.66-1.16,58.02-5.14,92.19c-8.54,1.17-15.18,0-15.18,0s-8.26-69.71-8.26-96.65       C1437.55,1041.45,1463.62,1021.98,1466.13,1045.9z"/><path fill="#dcf5f9" d="M1398.44,892.26l0.01,0.51C1398.47,892.45,1398.44,892.26,1398.44,892.26z"/><path fill="#f5c4b3" d="M1327.74,821.3c-2.35-1.19-5.51-1.97-7.99-0.72c-4.96,2.49-4.74,10.08-3.31,14.55        c1.23,3.83,10.13,12.65,13.43,6.48"/><g><path fill="#1d2028" d="M1430.14,1009.33c-0.05,9.6,0.07,37.68,3.73,49.65c4.44,14.55,5.94,24.32-11.98,22.45        c-17.92-1.84-97.51-0.1-102.8,0c-1.94,0.02-3.71-0.15-5.29-0.56c-2.72-0.68-4.92-1.96-6.57-3.76        c-3.88-4.15-4.8-10.93-2.33-19.01c3.64-11.98,3.78-40.05,3.71-49.65c0.06-43.21-7.85-95.37,3.94-108.13        c1.86-0.65,6.07-1.81,7.6-2.28l20.63-6.86c0,0-0.58,11.13,28.61,11.32h0.75c10.47,0,17.07-1.26,21.24-2.89        c6.79-3.3,6.57-7.56,6.57-7.56l8.49,2.81l6.96,2.33l5.21,1.72C1426.41,901.3,1429.54,986.43,1430.14,1009.33z"/><path fill="#10171c" d="M1340.34,892.26l-0.01,0.51C1340.32,892.45,1340.34,892.26,1340.34,892.26z"/></g><g><path fill="#1d2028" d="M1465.57,1000.07c-14.57,5.79-23.3,10.04-35.42,9.26c-0.03,5.23-16.57-47.66-22.97-80.12        c-2.42-12.28-3.47-19.8-2.18-25.1c1.21-4.96,3.58-8.53,8.42-6.91l0,0l5.21,1.72c7.78,2.38,21.19,7.2,26.57,13.38        c13.77,15.81,14.52,46.04,22.14,84.49C1467.63,998.18,1466.85,999.56,1465.57,1000.07z"/><path fill="#10171c" d="M1340.34,892.26l-0.01,0.51C1340.32,892.45,1340.34,892.26,1340.34,892.26z"/></g><g opacity=".5"><path fill="#efc99a" d="M1368.98,1159.11c0,0,7.35,5.48,15.84,3.66c-8.28,9.5-10.88,44.35-10.28,49.95       C1370.67,1175.82,1368.98,1159.11,1368.98,1159.11z"/></g><g opacity=".5"><path fill="#efc99a" d="M1368.98,1159.11c0,0-7.35,5.48-15.84,3.66c8.28,9.5,10.88,44.35,10.28,49.95       C1367.29,1175.82,1368.98,1159.11,1368.98,1159.11z"/></g><g><path fill="#00275c" d="M1316.71,791.96c0.37-1.79,2.72-9.18,8.3-16.22c-3.28,1.49-2.37-0.1,3.16-6.75       c5.54-6.65,13.75-12.27,24.79-13.98c2.86-0.44,6.68-0.26,10.93,0.3c3.29-0.54,16.2,0.38,14.17,1.72       c10.07-0.31,28.93,7.94,28.51,11.65c0.08,0.07,0.16,0.13,0.24,0.21c2.47,2.26,4.79,4.92,6.84,7.49       c3.96,4.96,5.9,11.26,5.29,17.59c-2.59,27.06-10.04,52.79-24.23,76.24c-1.03,1.7-2.13,3.43-3.7,4.65       c-2.98,2.3-8.14,1.27-11.76,1.27c-4.37,0-8.74,0-13.11,0c-5.43,0-16.1,2.13-20.62-1.39c-1.46-1.14-2.52-2.71-3.49-4.29       c-11.51-18.62-17.42-42.01-22.65-62.49c-0.53-2.07-0.83-4.19-1.15-6.3C1317.84,799.09,1316.11,794.81,1316.71,791.96z"/></g><g><path fill="#10171c" d="M1429.54,974.77l0.7,34.6c11.44,0.75,19.88-3.01,33.05-8.29c-8.12,2.3-23.83,4.87-26.21,3.69       C1434.07,1003.26,1429.54,974.77,1429.54,974.77z"/></g><g><path fill="#f9b295" d="M1163.82,825c-2.23-2.53,0.25-2.54,1.03-2.1c0.78,0.43,3.83,1.99,4.88,3c1.05,1.01,4.16,5.54,5.23,7.26       c1.07,1.72,3.77,10.57,3.77,10.57c1.22-0.59,2.37-3.4,1.88-6.04c-0.49-2.64,0.27-3.46,0.27-3.46s2.46,0.22,2.84,1.3       c0.37,1.08,2.78,9.62,2.66,11.61c-0.12,1.98-1.91,20.84-1.91,20.84s37.81,77.96,39.78,82.62c2.46,5.81,15.77,46.16-12.06,39.2       c-8.26-5.23-24.23-46.09-27.69-57.53c-3.46-11.44-17.75-62.96-17.75-62.96s-0.82-1.51-1.83-2.56c-1.01-1.05-7.5-8.48-7.26-9.64       c0.24-1.15-0.28-7.22,0.74-8.53c1.02-1.31,4.15-4.42,5.52-5.2c1.37-0.78,7.22-2.49,8.52-0.94c0.13-0.51-2.2-7.64-2.66-9.27       C1169.33,831.53,1166.05,827.52,1163.82,825z"/><path fill="#1d2028" d="M1239.58,950.37c-0.83-2.01-0.14-4.32,1.65-5.55c10.35-7.08,36.37-27.15,69.61-43.97       c20.05-10.14,56.42,43.49,8.33,65.61c-25.84,11.89-48.19,18.95-59.16,22.47c-2.29,0.74-4.75-0.41-5.66-2.64L1239.58,950.37z"/></g></g><g><path fill="#454e7c" d="M1254.26,1265.38v-33.19l-26.01-2.39c-2.39-11.55-6.97-22.27-13.21-31.8l16.73-20.12l-23.47-23.46    l-20.12,16.75c-9.53-6.26-20.26-10.82-31.78-13.23l-2.39-26.01h-33.19l-2.39,26.01c-11.55,2.41-22.25,6.97-31.8,13.23    l-20.12-16.75l-23.46,23.46l16.75,20.12c-6.26,9.53-10.82,20.27-13.23,31.8l-26.01,2.39v33.19l26.01,2.39    c2.41,11.55,6.97,22.27,13.23,31.8l-16.75,20.12l23.46,23.46l20.12-16.73c0.26,0.16,0.49,0.31,0.74,0.47    c9.35,6.01,19.8,10.39,31.06,12.74l0.41,26.18H1156l0.41-26.18c5.19-1.08,10.2-2.6,15.03-4.5c3.17-1.25,6.26-2.7,9.24-4.29    c2.58-1.35,5.09-2.84,7.52-4.42l20.12,16.73l23.47-23.46l-16.73-20.12c6.24-9.53,10.82-20.26,13.21-31.8L1254.26,1265.38z     M1137.4,1307.35c-32.29,0-58.48-26.18-58.48-58.49c0-32.29,26.18-58.48,58.48-58.48c32.31,0,58.48,26.18,58.48,58.48    C1195.88,1281.17,1169.72,1307.35,1137.4,1307.35z"/></g><g><path fill="#454e7c" d="M1034.64,1222.36l5.54-21.21l-16.22-5.87c0.4-7.78-0.73-15.4-3.13-22.53l14.06-10.06l-11.08-18.92    l-15.66,7.35c-5.05-5.59-11.14-10.3-18.1-13.77l2.82-17.02l-21.21-5.54l-5.87,16.22c-7.78-0.39-15.38,0.74-22.53,3.14    l-10.06-14.07l-18.92,11.08l7.34,15.66c-5.59,5.04-10.3,11.15-13.77,18.11l-17.02-2.82l-5.54,21.21l16.22,5.87    c-0.39,7.78,0.73,15.4,3.14,22.53l-14.07,10.06l11.08,18.92l15.65-7.33c0.14,0.14,0.26,0.28,0.4,0.42    c4.97,5.4,10.92,9.95,17.72,13.33l-4.11,16.8l23.74,6.21l4.64-16.67c3.49,0.18,6.95,0.04,10.36-0.37c2.24-0.27,4.45-0.68,6.62-1.2    c1.88-0.43,3.73-0.96,5.54-1.57l10.06,14.05l18.92-11.08l-7.33-15.65c5.58-5.05,10.3-11.14,13.76-18.12L1034.64,1222.36z     M952.94,1229.66c-20.64-5.39-33-26.5-27.6-47.15c5.39-20.64,26.5-33,47.14-27.6c20.65,5.4,33,26.5,27.6,47.14    C994.69,1222.7,973.59,1235.06,952.94,1229.66z"/></g><g><path fill="#454e7c" d="M1527.24,566.61l-10.68,3.71l-4.63-13.34c-8.54-24.6-35.51-37.66-60.09-29.13    c-24.59,8.54-37.64,35.49-29.1,60.09l4.63,13.34l-10.71,3.72c-8.33,2.89-12.8,12.11-9.91,20.45l30.13,86.79    c2.94,8.46,12.17,12.94,20.5,10.05l110.57-38.39c8.46-2.94,12.94-12.18,10-20.64l-30.13-86.79    C1544.93,568.13,1535.7,563.67,1527.24,566.61z M1442.89,580.94c-4.68-13.48,2.47-28.26,15.95-32.94    c13.47-4.68,28.24,2.49,32.92,15.97l4.63,13.34l-48.87,16.97L1442.89,580.94z M1506.98,660.05l7.69,22.16    c0.33,0.94-0.23,1.9-1.18,2.23l-10.61,3.68c-0.81,0.28-1.85-0.12-2.18-1.06l-7.69-22.16c-8.23-0.3-15.9-5.48-18.79-13.82    c-3.72-10.72,1.97-22.48,12.73-26.22c10.75-3.73,22.5,1.97,26.23,12.69C1516.07,645.89,1513.26,654.71,1506.98,660.05z"/></g><g><path fill="#454e7c" d="M721.95,1132.32l-22.53-7.13l-79.93,251.01c-15.9-0.72-31.92,5.84-42.72,19.13    c-18.1,22.27-14.71,54.99,7.56,73.09c22.27,18.1,54.99,14.71,73.09-7.56c18.1-22.27,14.71-54.99-7.56-73.09    c-1.66-1.35-3.38-2.56-5.14-3.67l59.07-192.62l23.97,6.27l6.27-24.26l-18.99-5.1l1.62-8.19l18.88,4.15l3.52-18.13l-19.98-4.61    L721.95,1132.32z M643.37,1449.45c-11.79,14.51-33.11,16.71-47.61,4.92c-14.51-11.79-16.71-33.11-4.92-47.61    c11.79-14.51,33.11-16.71,47.61-4.92C652.95,1413.62,655.16,1434.94,643.37,1449.45z"/></g></svg>